<svg xmlns="http://www.w3.org/2000/svg" fill="none" viewBox="0 0 23 24" height="24" width="23">
<path fill="#FF4589" d="M11.8508 20.2702C11.1808 20.4019 10.4997 20.469 9.8169 20.4704C6.77517 20.4704 4.37849 19.5591 2.62687 17.7366C0.875255 15.9141 -0.000361568 13.4136 1.12e-07 10.2352C1.12e-07 7.06506 0.872728 4.56675 2.6182 2.74027C4.36366 0.913786 6.75183 0.00036168 9.78271 0C12.8045 0 15.1886 0.913785 16.9348 2.74135C18.681 4.56892 19.5537 7.06759 19.553 10.2374C19.6291 12.3254 19.1251 14.3937 18.0968 16.2127C17.069 17.8552 15.5359 19.1198 13.7279 19.8166C15.9392 20.7519 18.984 21.3429 22.8623 21.5896L19.6316 24C16.8418 23.2153 14.2091 21.9532 11.8503 20.2696M15.3061 10.2547C15.3061 7.26651 14.8477 5.02554 13.9308 3.53181C13.4815 2.84518 12.8686 2.28093 12.1473 1.88977C11.426 1.49861 10.6187 1.29279 9.79816 1.2908C8.97759 1.28881 8.16937 1.49071 7.44614 1.87837C6.72291 2.26603 6.10733 2.82729 5.65469 3.51173C4.73313 4.99462 4.27235 7.22022 4.27235 10.1885C4.27235 13.1854 4.73313 15.4331 5.65469 16.9315C6.10257 17.6204 6.7152 18.1868 7.43713 18.5793C8.15907 18.9718 8.96749 19.178 9.78922 19.1793C10.6109 19.1806 11.42 18.9769 12.1432 18.5867C12.8664 18.1965 13.4808 17.632 13.9308 16.9445C14.8473 15.4548 15.3057 13.2248 15.3061 10.2547Z"></path>
</svg>
